#N canvas 0 0 1002 665 12;
#X obj 14 9 noise~;
#X obj 58 310 *~;
#X obj 78 233 bng 15 250 50 0 empty empty empty 0 -6 0 8 -262144 -1
-1;
#X obj 67 601 dac~;
#X obj 125 354 sig~;
#X floatatom 125 318 5 0 0 0 - - -;
#X obj 59 388 vcf~ 1;
#X obj 66 571 *~ 0.051;
#X obj 317 327 *~;
#X obj 384 342 sig~;
#X floatatom 384 313 5 0 0 0 - - -;
#X obj 318 376 vcf~ 1;
#X obj 336 234 bng 15 250 50 0 empty empty empty 0 -6 0 8 -262144 -1
-1;
#X obj 543 270 az_vad~;
#X obj 524 324 *~;
#X obj 591 339 sig~;
#X floatatom 591 310 5 0 0 0 - - -;
#X obj 525 373 vcf~ 1;
#X obj 734 10 loadbang;
#X obj 542 236 bng 15 250 50 0 empty empty empty 0 -6 0 8 -262144 -1
-1;
#X obj 58 423 *~ 0.71;
#X obj 299 7 bng 15 250 50 0 empty empty empty 0 -6 0 8 -262144 -1
-1;
#X floatatom 607 401 5 0 0 0 - - -;
#X msg 185 318 400;
#X msg 439 312 220;
#X msg 644 307 295;
#X obj 89 107 t b b;
#X obj 321 176 del 3600;
#X obj 321 104 t b b;
#X obj 380 127 random 2000;
#X obj 500 94 t b b;
#X obj 856 107 s cn_lvl;
#X obj 769 107 s cn_alpha;
#X obj 380 152 + 3600;
#X obj 89 190 del 3600;
#X obj 148 141 random 2000;
#X obj 148 166 + 3600;
#X obj 500 171 del 3600;
#X obj 559 122 random 2000;
#X obj 559 147 + 3600;
#X msg 140 233 2600;
#X msg 104 233 2700;
#X msg 361 231 800;
#X obj 562 449 cnoise1~;
#X msg 604 234 5500;
#X text 752 457 constant background noise;
#X text 660 235 short burst;
#X text 129 388 long;
#X text 809 607 sea waves \, AZ 2007;
#X text 612 270 replacement for ead;
#X text 600 373 idea is to make this frequency varying;
#X text 751 478 (wind);
#X msg 568 234 250;
#X msg 397 231 3500;
#X obj 524 424 *~ 6.1;
#X obj 313 423 *~ 3.6;
#X msg 769 81 1.635;
#X msg 856 82 72.89;
#X text 361 3 <- on;
#X obj 78 270 az_vad~;
#X obj 336 274 az_vad~;
#X connect 0 0 1 0;
#X connect 0 0 8 0;
#X connect 0 0 14 0;
#X connect 1 0 6 0;
#X connect 2 0 26 0;
#X connect 2 0 59 0;
#X connect 4 0 6 1;
#X connect 5 0 4 0;
#X connect 6 0 20 0;
#X connect 7 0 3 0;
#X connect 7 0 3 1;
#X connect 8 0 11 0;
#X connect 9 0 11 1;
#X connect 10 0 9 0;
#X connect 11 0 55 0;
#X connect 12 0 28 0;
#X connect 12 0 60 0;
#X connect 13 0 14 1;
#X connect 14 0 17 0;
#X connect 15 0 17 1;
#X connect 16 0 15 0;
#X connect 17 0 54 0;
#X connect 18 0 41 0;
#X connect 18 0 40 0;
#X connect 18 0 42 0;
#X connect 18 0 53 0;
#X connect 18 0 52 0;
#X connect 18 0 44 0;
#X connect 18 0 23 0;
#X connect 18 0 25 0;
#X connect 18 0 24 0;
#X connect 18 0 56 0;
#X connect 18 0 57 0;
#X connect 19 0 13 0;
#X connect 19 0 30 0;
#X connect 20 0 7 0;
#X connect 21 0 26 0;
#X connect 21 0 28 0;
#X connect 21 0 30 0;
#X connect 22 0 54 1;
#X connect 23 0 4 0;
#X connect 24 0 9 0;
#X connect 25 0 15 0;
#X connect 26 0 34 0;
#X connect 26 1 35 0;
#X connect 27 0 12 0;
#X connect 28 0 27 0;
#X connect 28 1 29 0;
#X connect 29 0 33 0;
#X connect 30 0 37 0;
#X connect 30 1 38 0;
#X connect 33 0 27 1;
#X connect 34 0 2 0;
#X connect 35 0 36 0;
#X connect 36 0 34 1;
#X connect 37 0 19 0;
#X connect 38 0 39 0;
#X connect 39 0 37 1;
#X connect 40 0 59 2;
#X connect 41 0 59 1;
#X connect 42 0 60 1;
#X connect 43 0 7 0;
#X connect 44 0 13 2;
#X connect 52 0 13 1;
#X connect 53 0 60 2;
#X connect 54 0 7 0;
#X connect 55 0 7 0;
#X connect 56 0 32 0;
#X connect 57 0 31 0;
#X connect 59 0 1 1;
#X connect 60 0 8 1;
